{"title":"Extreme Collectors S01E08 WEBRip x264-WNN","uid":12150280,"size":204246526,"categoryP":"video","categoryS":"tv_shows","magnet":"?xt=urn:btih:36e4cc6c56782c7dac0547b8a0bd445db5207677&amp;dn=Extreme+Collectors+S01E08+WEBRip+x264-WNN&amp;tr=udp%3A%2F%2Ftracker.openbittorrent.com%3A80&amp;tr=udp%3A%2F%2Fopen.demonii.com%3A1337&amp;tr=udp%3A%2F%2Ftracker.coppersurfer.tk%3A6969&amp;tr=udp%3A%2F%2Fexodus.desync.com%3A6969","seeders":3,"leechers":0,"uploader":"Mulva1989","files":1,"time":1437609964,"description":"Extreme Collectors S01E08 WEBRip x264-WNN\n\nIn this episode Andrew is in Toronto, and he steps back in time when he enters a grand building showcasing an incredible collection of vintage Cadillacs. Andrew then meets up with a collector who is obsessed with My Little Pony figures, discovers a toy car collection, and is left speechless by a cookie jar fan with an off-the-wall plan for his collection.\n\nScreens @ &lt;a href=&quot;\nhttps://yuq.me/users/50/321/9ANr4vZUxg.jpg&quot; rel=&quot;nofollow&quot; target=&quot;_NEW&quot;&gt;\nhttps://yuq.me/users/50/321/9ANr4vZUxg.jpg&lt;/a&gt; &lt;a href=&quot;\nhttps://yuq.me/users/50/321/gaNoU3PeLS.jpg&quot; rel=&quot;nofollow&quot; target=&quot;_NEW&quot;&gt;\nhttps://yuq.me/users/50/321/gaNoU3PeLS.jpg&lt;/a&gt;\n\nFormat : MPEG-4\nFormat profile : Base Media\nCodec ID : isom\nFile size : 195 MiB\nDuration : 22mn 7s\nOverall bit rate mode : Variable\nOverall bit rate : 1 231 Kbps\nEncoded date : UTC 2015-06-13 20:12:44\nTagged date : UTC 2015-06-13 20:12:44\n\nVideo\nID : 1\nFormat : AVC\nFormat/Info : Advanced Video Codec\nFormat profile : &lt;a class=&quot;__cf_email__&quot; href=&quot;/cdn-cgi/l/email-protection&quot; data-cfemail=&quot;551d3c323d1519667b64&quot;&gt;[email&amp;#160;protected]&lt;/a&gt;&lt;script data-cfhash='f9e31' type=&quot;text/javascript&quot;&gt;\n/* &lt;![CDATA[ */!function(){try{var t=&quot;currentScript&quot;in document?document.currentScript:function(){for(var t=document.getElementsByTagName(&quot;script&quot;),e=t.length;e--;)if(t[e].getAttribute(&quot;data-cfhash&quot;))return t[e]}();if(t&amp;&amp;t.previousSibling){var e,r,n,i,c=t.previousSibling,a=c.getAttribute(&quot;data-cfemail&quot;);if(a){for(e=&quot;&quot;,r=parseInt(a.substr(0,2),16),n=2;a.length-n;n+=2)i=parseInt(a.substr(n,2),16)^r,e+=String.fromCharCode(i);e=document.createTextNode(e),c.parentNode.replaceChild(e,c)}t.parentNode.removeChild(t);}}catch(u){}}()/* ]]&gt; */&lt;/script&gt;\nFormat settings, CABAC : Yes\nFormat settings, ReFrames : 5 frames\nCodec ID : avc1\nCodec ID/Info : Advanced Video Coding\nDuration : 22mn 7s\nBit rate : 1 128 Kbps\nMaximum bit rate : 4 070 Kbps\nWidth : 640 pixels\nHeight : 360 pixels\nDisplay aspect ratio : 16:9\nFrame rate mode : Constant\nFrame rate : 30.000 fps\nColor space : YUV\nChroma subsampling : 4:2:0\nBit depth : 8 bits\nScan type : Progressive\nBits/(Pixel*Frame) : 0.163\nStream size : 178 MiB (92%)\nWriting library : x264 core 146 r2538 121396c\nEncoding settings : cabac=1 / ref=5 / deblock=1:0:0 / analyse=0x3:0x113 / me=umh / subme=8 / psy=1 / psy_rd=1.00:0.00 / mixed_ref=1 / me_range=16 / chroma_me=1 / trellis=1 / 8x8dct=1 / cqm=0 / deadzone=21,11 / fast_pskip=1 / chroma_qp_offset=-2 / threads=12 / lookahead_threads=2 / sliced_threads=0 / nr=0 / decimate=1 / interlaced=0 / bluray_compat=0 / constrained_intra=0 / bframes=3 / b_pyramid=2 / b_adapt=2 / b_bias=0 / direct=3 / weightb=1 / open_gop=0 / weightp=2 / keyint=300 / keyint_min=30 / scenecut=40 / intra_refresh=0 / rc_lookahead=50 / rc=crf / mbtree=1 / crf=19.0 / qcomp=0.60 / qpmin=0 / qpmax=69 / qpstep=4 / ip_ratio=1.40 / aq=1:1.00\nEncoded date : UTC 2015-06-13 08:22:36\nTagged date : UTC 2015-06-13 20:12:45\n\nAudio\nID : 2\nFormat : AAC\nFormat/Info : Advanced Audio Codec\nFormat profile : LC\nCodec ID : 40\nDuration : 22mn 7s\nBit rate mode : Variable\nBit rate : 98.4 Kbps\nMaximum bit rate : 133 Kbps\nChannel(s) : 2 channels\nChannel positions : Front: L R\nSampling rate : 44.1 KHz\nCompression mode : Lossy\nStream size : 15.6 MiB (8%)\nLanguage : English\nEncoded date : UTC 2015-06-13 07:44:10\nTagged date : UTC 2015-06-13 20:12:45","torrent":{"xt":"urn:btih:36e4cc6c56782c7dac0547b8a0bd445db5207677","amp;dn":"Extreme+Collectors+S01E08+WEBRip+x264-WNN","amp;tr":["udp%3A%2F%2Ftracker.openbittorrent.com%3A80","udp%3A%2F%2Fopen.demonii.com%3A1337","udp%3A%2F%2Ftracker.coppersurfer.tk%3A6969","udp%3A%2F%2Fexodus.desync.com%3A6969"],"infoHash":"36e4cc6c56782c7dac0547b8a0bd445db5207677","infoHashBuffer":{"type":"Buffer","data":[54,228,204,108,86,120,44,125,172,5,71,184,160,189,68,93,181,32,118,119]},"announce":[],"urlList":[]}}